<?xml version="1.0" encoding="UTF-8" standalone="no"?>
<svg
   xmlns:dc="http://purl.org/dc/elements/1.1/"
   xmlns:cc="http://creativecommons.org/ns#"
   xmlns:rdf="http://www.w3.org/1999/02/22-rdf-syntax-ns#"
   xmlns:svg="http://www.w3.org/2000/svg"
   xmlns="http://www.w3.org/2000/svg"
   xmlns:sodipodi="http://sodipodi.sourceforge.net/DTD/sodipodi-0.dtd"
   xmlns:inkscape="http://www.inkscape.org/namespaces/inkscape"
   version="1.1"
   id="Camada_1"
   x="0px"
   y="0px"
   viewBox="0 0 997.40002 305.20003"
   xml:space="preserve"
   sodipodi:docname="PM3_Logo_roxo.svg"
   width="997.40002"
   height="305.20001"
   inkscape:version="1.0.2 (e86c8708, 2021-01-15)"><metadata
   id="metadata33"><rdf:RDF><cc:Work
       rdf:about=""><dc:format>image/svg+xml</dc:format><dc:type
         rdf:resource="http://purl.org/dc/dcmitype/StillImage" /><dc:title></dc:title></cc:Work></rdf:RDF></metadata><defs
   id="defs31" /><sodipodi:namedview
   pagecolor="#ffffff"
   bordercolor="#666666"
   borderopacity="1"
   objecttolerance="10"
   gridtolerance="10"
   guidetolerance="10"
   inkscape:pageopacity="0"
   inkscape:pageshadow="2"
   inkscape:window-width="1440"
   inkscape:window-height="761"
   id="namedview29"
   showgrid="false"
   inkscape:zoom="0.49880608"
   inkscape:cx="930.22938"
   inkscape:cy="230.34485"
   inkscape:window-x="0"
   inkscape:window-y="565"
   inkscape:window-maximized="0"
   inkscape:current-layer="Camada_1" />
<style
   type="text/css"
   id="style10">
	.st0{fill:#FFFFFF;}
	.st1{fill:#672AD1;}
	.st2{fill-rule:evenodd;clip-rule:evenodd;fill:#672AD1;}
</style>
<rect
   x="50.999996"
   y="35.499996"
   class="st0"
   width="215.3"
   height="269.70001"
   id="rect12" />
<g
   id="g26"
   transform="translate(-153.7,-138.2)">
	<g
   id="g22">
		<g
   id="g16">
			<path
   class="st1"
   d="m 1072.8,270.2 65.2,-62.2 3.2,-3 V 186.2 H 1004.5 V 208 h 106.1 l -68.7,65.4 V 292 h 36.5 c 26.5,0 48.7,10.6 48.7,39.2 0,28.6 -23.1,45.3 -53.5,45.3 -30.3,0 -47.1,-11.8 -63.7,-23.5 -7,9.5 -13.2,19 -13.2,19 16.9,13.3 35.9,26.3 76.4,26.3 44.3,0 78,-26.6 78,-68.3 0,-34.1 -26.2,-59.8 -67.5,-59.8 z"
   id="path14" />
		</g>
		<path
   class="st1"
   d="m 632.6,186.2 h -86.5 v 209.1 h 24.1 v -81.6 h 62.4 c 50.8,0 72.3,-28.4 72.3,-63.8 0,-35.4 -21.5,-63.7 -72.3,-63.7 z m 6.5,105.8 h -68.9 v -84 h 68.9 c 35.7,0 41.3,29 41.3,42 0,13 -5.6,42 -41.3,42 z"
   id="path18" />
		<polygon
   class="st1"
   points="770,186.2 741.2,186.2 741.2,395.4 765.3,395.4 765.3,230.6 844.6,395.5 858.3,395.5 937.7,230.6 937.7,395.4 961.7,395.4 961.7,186.2 932.9,186.2 851.5,352.9 "
   id="polygon20" />
	</g>
	<path
   class="st2"
   d="m 421.3,138.2 h -230 c -20.8,0 -37.6,16.8 -37.6,37.6 v 230 c 0,20.8 16.8,37.6 37.6,37.6 h 144.4 c 24.5,0 49.7,-27.7 49.7,-59.4 0,-35.8 -34.8,-64.9 -70.6,-64.9 h -49.1 v -17.4 l 93,-88.3 H 219.1 V 186.1 H 404 V 205 l -3.2,3 -87.2,83.9 c 53.6,0 99.1,44.2 99.1,92.1 0,23.6 -8.5,43.3 -21.7,59.4 h 30.3 c 20.8,0 37.6,-16.8 37.6,-37.6 v -230 c 0,-20.8 -16.8,-37.6 -37.6,-37.6 z"
   id="path24" />
</g>
</svg>
